<svg width="32" height="32" viewBox="0 0 32 32" fill="none" xmlns="http://www.w3.org/2000/svg">
  <circle cx="16" cy="16" r="14" fill="#0f172a" stroke="#1173d4" stroke-width="2"/>
  <path d="M8 16c0-1.5 1-3 2.5-3.5C11.5 11.5 13 10 15 9.5c1-.25 2 0 2.5.5.5.5 1 1.5.5 2.5-.5 1-1.5 1.5-2 2.5-.5 1 0 2 1 2.5s2.5 0 3-1c.5-1 0-2.5-1-3s-2.5-.5-3.5 0c-1 .5-1.5 1.5-1 2.5" stroke="#1173d4" stroke-width="1.5" stroke-linecap="round"/>
  <circle cx="20" cy="12" r="1.5" fill="#60a5fa"/>
  <circle cx="12" cy="20" r="1" fill="#60a5fa"/>
  <circle cx="22" cy="20" r="0.8" fill="#93c5fd"/>
</svg>